<?xml version="1.0"?>
<svg xmlns="http://www.w3.org/2000/svg" xmlns:xlink="http://www.w3.org/1999/xlink" version="1.1" id="Capa_1" x="0px" y="0px" viewBox="0 0 512 512" style="enable-background:new 0 0 512 512;" xml:space="preserve" width="512px" height="512px"><g><g>
	<g>
		<path d="M437,212.16h-8.975l-50-60H203.364l-65.986,57.738L32.32,104.84l-21.213,21.213l96.106,96.106H70    c-38.598,0-70,31.402-70,70c0,38.563,31.347,69.942,69.898,69.997c6.677,25.851,30.195,45.003,58.102,45.003    c27.906,0,51.424-19.151,58.101-45h146.797c6.678,25.849,30.195,45,58.101,45c28.275,0,52.029-19.666,58.342-46.033    C484.843,355.221,512,324.311,512,287.16C512,245.805,478.355,212.16,437,212.16z M128,377.16c-16.542,0-30-13.458-30-30    s13.458-30,30-30s30,13.458,30,30S144.542,377.16,128,377.16z M391,377.16c-16.542,0-30-13.458-30-30s13.458-30,30-30    s30,13.458,30,30S407.542,377.16,391,377.16z M448.663,330.618c-7.201-25.062-30.316-43.459-57.663-43.459    c-27.906,0-51.424,19.151-58.101,45H186.101c-6.678-25.849-30.195-45-58.101-45c-27.905,0-51.422,19.149-58.101,44.997    C47.89,332.102,30,314.182,30,292.16c0-22.056,17.944-40,40-40h64.636l80-70h149.338l50,60H437c24.813,0,45,20.187,45,45    C482,307.94,467.839,325.467,448.663,330.618z" data-original="#000000" class="active-path" data-old_color="#000000" fill="#81C784"/>
	</g>
</g></g> </svg>
