<?xml version="1.0"?>
<svg xmlns="http://www.w3.org/2000/svg" xmlns:xlink="http://www.w3.org/1999/xlink" version="1.1" id="Capa_1" x="0px" y="0px" viewBox="0 0 512 512" style="enable-background:new 0 0 512 512;" xml:space="preserve" width="512px" height="512px"><g><g>
	<g>
		<rect x="332.759" y="401.067" width="34.133" height="17.067" data-original="#000000" class="active-path" data-old_color="#000000" fill="#81C784"/>
	</g>
</g><g>
	<g>
		<path d="M255.96,264.533v85.333h187.733v-85.333H255.96z M409.56,324.267c0,4.719-3.823,8.533-8.533,8.533h-102.4    c-4.71,0-8.533-3.814-8.533-8.533v-34.133c0-4.719,3.823-8.533,8.533-8.533h102.4c4.71,0,8.533,3.814,8.533,8.533V324.267z" data-original="#000000" class="active-path" data-old_color="#000000" fill="#81C784"/>
	</g>
</g><g>
	<g>
		<rect x="307.16" y="298.667" width="85.333" height="17.067" data-original="#000000" class="active-path" data-old_color="#000000" fill="#81C784"/>
	</g>
</g><g>
	<g>
		<path d="M255.96,366.933v25.6c0,32.93,26.795,59.733,59.733,59.733h68.267c32.939,0,59.733-26.803,59.733-59.733v-25.6H255.96z     M383.96,418.133c0,9.412-7.654,17.067-17.067,17.067h-34.133c-9.412,0-17.067-7.654-17.067-17.067v-17.067    c0-9.412,7.654-17.067,17.067-17.067h34.133c9.412,0,17.067,7.654,17.067,17.067V418.133z" data-original="#000000" class="active-path" data-old_color="#000000" fill="#81C784"/>
	</g>
</g><g>
	<g>
		<circle cx="273.026" cy="85.333" r="25.6" data-original="#000000" class="active-path" data-old_color="#000000" fill="#81C784"/>
	</g>
</g><g>
	<g>
		<path d="M418.093,0H281.56c-51.755,0-93.867,42.112-93.867,93.867v22.443L3.347,439.765c-6.852,12.015-2.679,27.409,9.293,34.313    l15.428,8.909c3.891,2.244,8.192,3.388,12.57,3.388c2.219,0,4.446-0.299,6.647-0.887c6.536-1.775,11.972-5.999,15.317-11.887    l125.082-220.322v164.856c0,51.755,42.112,93.867,93.867,93.867h136.533c51.755,0,93.867-42.112,93.867-93.867V93.867    C511.96,42.112,469.848,0,418.093,0z M187.684,218.718L47.772,465.178c-1.075,1.911-2.842,3.268-4.949,3.84    c-2.108,0.572-4.309,0.282-6.212-0.811l-15.437-8.909c-3.866-2.236-5.214-7.202-3.004-11.085l169.515-297.438V218.718z     M273.026,42.667c23.526,0,42.667,19.14,42.667,42.667c0,23.526-19.14,42.667-42.667,42.667c-23.526,0-42.667-19.14-42.667-42.667    C230.359,61.807,249.5,42.667,273.026,42.667z M460.759,256v102.4v34.133c0,42.351-34.458,76.8-76.8,76.8h-68.267    c-42.342,0-76.8-34.449-76.8-76.8V358.4V256v-34.133c0-42.351,34.458-76.8,76.8-76.8h68.267c42.342,0,76.8,34.449,76.8,76.8V256z" data-original="#000000" class="active-path" data-old_color="#000000" fill="#81C784"/>
	</g>
</g><g>
	<g>
		<path d="M383.96,162.133h-68.267c-32.939,0-59.733,26.803-59.733,59.733v25.6h187.733v-25.6    C443.693,188.937,416.898,162.133,383.96,162.133z M383.96,213.333c0,9.412-7.654,17.067-17.067,17.067h-34.133    c-9.412,0-17.067-7.654-17.067-17.067v-17.067c0-9.412,7.654-17.067,17.067-17.067h34.133c9.412,0,17.067,7.654,17.067,17.067    V213.333z" data-original="#000000" class="active-path" data-old_color="#000000" fill="#81C784"/>
	</g>
</g><g>
	<g>
		<rect x="332.759" y="196.267" width="34.133" height="17.067" data-original="#000000" class="active-path" data-old_color="#000000" fill="#81C784"/>
	</g>
</g></g> </svg>
